<svg width="163" height="139" viewBox="0 0 163 139" fill="none" xmlns="http://www.w3.org/2000/svg">
<rect x="9" y="1.5" width="120" height="120" rx="60" fill="#F1F5F9"/>
<circle cx="4" cy="28.5" r="2" fill="#FFD9A9"/>
<circle cx="133" cy="22.5" r="2" fill="#2DD4BF"/>
<circle cx="144.5" cy="32" r="3.5" fill="#E2E8F0"/>
<circle cx="3" cy="120.5" r="2" fill="#FF8092"/>
<g filter="url(#filter0_d_2294_7071)">
<path d="M18 10.4086C18 9.60191 18.906 9.12722 19.5692 9.58638L23.9308 12.6059C24.2732 12.843 24.7268 12.843 25.0692 12.6059L30.4308 8.89407C30.7732 8.65699 31.2268 8.65699 31.5692 8.89407L36.9514 12.6202C37.2835 12.8501 37.7215 12.8576 38.0613 12.6392L43.9592 8.84763C44.2887 8.63587 44.7113 8.63587 45.0408 8.84763L50.9153 12.6241C51.2668 12.8501 51.7218 12.8337 52.0561 12.5829L56.9 8.95C57.2556 8.68333 57.7444 8.68333 58.1 8.95L62.9234 12.5675C63.2677 12.8258 63.7387 12.8347 64.0926 12.5897L69.4074 8.91026C69.7613 8.66526 70.2323 8.6742 70.5766 8.93246L75.3732 12.5299C75.7413 12.806 76.2503 12.7952 76.6064 12.5038L80.8668 9.0181C81.2351 8.71671 81.7649 8.71671 82.1332 9.0181L86.3936 12.5038C86.7497 12.7952 87.2587 12.806 87.6268 12.5299L91.4 9.7C92.0592 9.20557 93 9.67595 93 10.5V112.777C93 113.545 92.1705 114.026 91.5039 113.645L86.4961 110.784C86.1887 110.608 85.8113 110.608 85.5039 110.784L79.515 114.206C79.1975 114.387 78.8063 114.381 78.4948 114.189L73.0705 110.851C72.7253 110.639 72.286 110.656 71.9582 110.894L67.5882 114.072C67.2375 114.327 66.7625 114.327 66.4118 114.072L62.0882 110.928C61.7375 110.673 61.2625 110.673 60.9118 110.928L56.6509 114.027C56.2709 114.303 55.7496 114.277 55.3984 113.965L52.1016 111.035C51.7504 110.723 51.2291 110.697 50.8491 110.973L46.6509 114.027C46.2709 114.303 45.7496 114.277 45.3984 113.965L42.1644 111.091C41.7855 110.754 41.2145 110.754 40.8356 111.091L37.6644 113.909C37.2855 114.246 36.7145 114.246 36.3356 113.909L33.1304 111.06C32.7663 110.737 32.2218 110.723 31.8414 111.027L28.1586 113.973C27.7782 114.277 27.2337 114.263 26.8696 113.94L23.6304 111.06C23.2663 110.737 22.7218 110.723 22.3414 111.027L19.6247 113.2C18.9699 113.724 18 113.258 18 112.419V10.4086Z" fill="white"/>
</g>
<rect x="26" y="28.5" width="58" height="4" rx="2" fill="#E2E8F0"/>
<rect x="26" y="37.5" width="37" height="4" rx="2" fill="#E2E8F0"/>
<rect x="66" y="37.5" width="18" height="4" rx="2" fill="#E2E8F0"/>
<rect x="26" y="46.5" width="22" height="4" rx="2" fill="#E2E8F0"/>
<rect x="51" y="46.5" width="33" height="4" rx="2" fill="#E2E8F0"/>
<rect x="26" y="55.5" width="47" height="4" rx="2" fill="#E2E8F0"/>
<rect x="52" y="70.5" width="32" height="4" rx="2" fill="#E2E8F0"/>
<rect x="52" y="79.5" width="22" height="4" rx="2" fill="#E2E8F0"/>
<rect x="52" y="88.5" width="32" height="4" rx="2" fill="#E2E8F0"/>
<path d="M40.2654 76.1667C40 75.4137 39.5153 74.7573 38.8737 74.282C38.2322 73.8068 37.463 73.5344 36.6654 73.5H31.332C30.2712 73.5 29.2537 73.9214 28.5036 74.6716C27.7535 75.4217 27.332 76.4391 27.332 77.5C27.332 78.5609 27.7535 79.5783 28.5036 80.3284C29.2537 81.0786 30.2712 81.5 31.332 81.5H36.6654C37.7262 81.5 38.7436 81.9214 39.4938 82.6716C40.2439 83.4217 40.6654 84.4391 40.6654 85.5C40.6654 86.5609 40.2439 87.5783 39.4938 88.3284C38.7436 89.0786 37.7262 89.5 36.6654 89.5H31.332C30.5344 89.4656 29.7652 89.1932 29.1237 88.718C28.4821 88.2427 27.9974 87.5863 27.732 86.8333M33.9987 69.5V73.5M33.9987 89.5V93.5" stroke="#CBD5E1" stroke-width="2" stroke-linecap="round" stroke-linejoin="round"/>
<g filter="url(#filter1_d_2294_7071)">
<path d="M72.6835 95.5C70.1004 95.5 68 93.3996 68 90.8165V57.1835C68 54.6004 70.1004 52.5 72.6835 52.5H129.706C132.288 52.5 134.39 54.6004 134.39 57.1835V90.8165C134.39 93.3996 132.288 95.5 129.706 95.5H72.6835Z" fill="#4169E1"/>
</g>
<path d="M78.547 79.5C76.5909 79.5 75 78.1535 75 76.4994C75 74.8453 76.5909 73.5 78.547 73.5H91.453C93.4091 73.5 95 74.8453 95 76.4994C95 78.1535 93.4091 79.5 91.453 79.5H78.547Z" fill="white"/>
<path d="M112.735 90.0891C109.673 90.0891 107.182 87.5975 107.182 84.5358C107.182 81.474 109.673 78.9824 112.735 78.9824C115.797 78.9824 118.288 81.474 118.288 84.5358C118.288 87.5975 115.797 90.0891 112.735 90.0891Z" fill="#0F172A"/>
<path d="M120.911 90.0891C117.849 90.0891 115.357 87.5975 115.357 84.5358C115.357 81.474 117.849 78.9824 120.911 78.9824C123.973 78.9824 126.464 81.474 126.464 84.5358C126.464 87.5975 123.973 90.0891 120.911 90.0891Z" fill="#0F172A"/>
<path d="M75.6406 66.332H85.1123" stroke="white" stroke-linecap="round" stroke-linejoin="round"/>
<path d="M89.6348 66.332H99.1065" stroke="white" stroke-linecap="round" stroke-linejoin="round"/>
<path d="M116.949 66.332H126.421" stroke="white" stroke-linecap="round" stroke-linejoin="round"/>
<path d="M103.301 66.332H112.773" stroke="white" stroke-linecap="round" stroke-linejoin="round"/>
<defs>
<filter id="filter0_d_2294_7071" x="0" y="0.689453" width="107" height="137.648" filterUnits="userSpaceOnUse" color-interpolation-filters="sRGB">
<feFlood flood-opacity="0" result="BackgroundImageFix"/>
<feColorMatrix in="SourceAlpha" type="matrix" values="0 0 0 0 0 0 0 0 0 0 0 0 0 0 0 0 0 0 127 0" result="hardAlpha"/>
<feOffset dx="-2" dy="8"/>
<feGaussianBlur stdDeviation="8"/>
<feComposite in2="hardAlpha" operator="out"/>
<feColorMatrix type="matrix" values="0 0 0 0 0.0588235 0 0 0 0 0.0901962 0 0 0 0 0.164706 0 0 0 0.06 0"/>
<feBlend mode="normal" in2="BackgroundImageFix" result="effect1_dropShadow_2294_7071"/>
<feBlend mode="normal" in="SourceGraphic" in2="effect1_dropShadow_2294_7071" result="shape"/>
</filter>
<filter id="filter1_d_2294_7071" x="43.8" y="30.5" width="119.189" height="95.8" filterUnits="userSpaceOnUse" color-interpolation-filters="sRGB">
<feFlood flood-opacity="0" result="BackgroundImageFix"/>
<feColorMatrix in="SourceAlpha" type="matrix" values="0 0 0 0 0 0 0 0 0 0 0 0 0 0 0 0 0 0 127 0" result="hardAlpha"/>
<feOffset dx="2.2" dy="4.4"/>
<feGaussianBlur stdDeviation="13.2"/>
<feComposite in2="hardAlpha" operator="out"/>
<feColorMatrix type="matrix" values="0 0 0 0 0.0588235 0 0 0 0 0.0901962 0 0 0 0 0.164706 0 0 0 0.15 0"/>
<feBlend mode="normal" in2="BackgroundImageFix" result="effect1_dropShadow_2294_7071"/>
<feBlend mode="normal" in="SourceGraphic" in2="effect1_dropShadow_2294_7071" result="shape"/>
</filter>
</defs>
</svg>
